<svg width="64" height="64" viewBox="0 64" fill="none" xmlns="http://www.w3.org/2000/svg">
  <rect width="64" height="64" rx="12" fill="#172B4D"/>
  <g transform="translate(8, 4) scale(0.85)">
    <path d="M45.5988 19C49.2654 20 57.5988 23.6 61.5988 30C58.7654 33.3333 51.5988 40.2 45.5988 41" stroke="#fff" stroke-width="2" stroke-linecap="round"/>
    <path d="M41.5987 18.5C32.2654 18.1667 12.5987 22.8 8.5987 44C4.5987 65.2 20.5987 75.5 29.0987 78C23.2654 69.3333 17.1988 50 39.5988 42" stroke="#fff" stroke-width="2" stroke-linecap="round"/>
    <path d="M41.5988 22.5V39" stroke="#fff" stroke-width="2" stroke-linecap="round"/>
    <path d="M25.5987 16L21.0987 8C15.9321 12.3333 5.89875 23.5 7.09875 33.5" stroke="#fff" stroke-width="2" stroke-linecap="round"/>
    <path d="M41.5988 46.5V54.5H30.5988" stroke="#fff" stroke-width="2" stroke-linecap="round"/>
    <path d="M29.0988 67L41.5988 62.5V83L33.5988 79.5" stroke="#fff" stroke-width="2" stroke-linecap="round"/>
    <path d="M41.5988 73H31.0988" stroke="#fff" stroke-width="2" stroke-linecap="round"/>
    <circle cx="48.0988" cy="27.5" r="1.5" fill="#fff"/>
  </g>
</svg>
